<svg xmlns="http://www.w3.org/2000/svg" viewBox="0 0 128 128">
  <path fill="#F7DF1E" d="M2 2h124v124H2z"/>
  <path d="M86.1 96.4c2.4 3.9 5.5 6.8 11 6.8 4.6 0 7.5-2.3 7.5-5.5 0-3.8-3-5.1-8-7.3l-2.8-1.2c-8-3.4-13.2-7.7-13.2-16.7 0-8.3 6.3-14.6 16.2-14.6 7 0 12 2.4 15.6 8.6l-8.5 5.4c-1.9-3.4-4-4.7-7.2-4.7-3.3 0-5.4 2.1-5.4 4.7 0 3.3 2.1 4.6 7 6.6l2.8 1.2c9.6 4.1 14.8 8.2 14.8 17.4 0 10-7.8 15.5-18.3 15.5-10.3 0-17-4.9-20.2-11.4l8.7-5.3zM45 97.5c1.7 3 3.2 5.6 6.8 5.6 3.5 0 5.7-1.4 5.7-6.9V58.1h10.6v38.3c0 11-6.4 16-15.8 16-8.5 0-13.4-4.4-15.9-9.7L45 97.5z"/>
</svg>
