<svg xmlns="http://www.w3.org/2000/svg" viewBox="0 0 24 24" fill="#00ffff"><path d="M20.5 3.5a10.5 10.5 0 0 0-16 13l-1 4 4-1a10.5 10.5 0 1 0 13-16zm-6.7 15.2a8 8 0 0 1-6.8-1.7l-.5-.4-2 .5.6-1.9-.4-.6a8 8 0 1 1 9.1 4.1zm4.1-5.9c-.2-.1-1.4-.7-1.6-.8s-.4-.1-.6.1-.7.8-.9.9-.3.1-.6 0a6.4 6.4 0 0 1-1.9-1.2 7 7 0 0 1-1.3-1.7c-.1-.2 0-.4.1-.5l.3-.4c.1-.2.2-.3.3-.5s0-.3 0-.5l-.8-2c-.2-.4-.4-.4-.6-.4h-.5c-.2 0-.5.1-.8.4s-1.1 1-1.1 2.3 1.1 2.7 1.3 2.9a14.6 14.6 0 0 0 5.6 4c.8.3 1.5.5 2 .6a4.6 4.6 0 0 0 2.1-.1c.7-.3 1.4-1.1 1.6-1.8s.2-1.2.1-1.3-.2-.1-.4-.2z"/></svg>
