<svg xmlns="http://www.w3.org/2000/svg" viewBox="0 0 24 24" fill="#00ffff">
  <path d="M20.5 3.5a10.6 10.6 0 0 0-15 0 10.3 10.3 0 0 0-2.3 11L2 22l7.6-1.9a10.6 10.6 0 0 0 11-2.3 10.3 10.3 0 0 0 0-14.3ZM9.6 7.8c-.2-.5-.4-.5-.7-.5h-.6c-.2 0-.6.1-.9.4s-1 1-1 2.4 1.1 2.8 1.3 3.1a8.9 8.9 0 0 0 3.3 2.6 9.7 9.7 0 0 0 2 .7 2.3 2.3 0 0 0 1-.1c.3-.1 1-.4 1.2-.9s.3-.8.2-.9-.3-.2-.7-.4-1.3-.6-1.5-.7-.3-.1-.5.1-.6.8-.8.9-.3.1-.6 0a6.1 6.1 0 0 1-2.2-1.6 7.7 7.7 0 0 1-1.4-1.8c-.2-.3 0-.4.1-.6l.2-.3c.1-.2.1-.3.2-.5s0-.3 0-.5Z"/>
</svg>

